<?xml version="1.0" standalone="no"?>
<!DOCTYPE svg PUBLIC "-//W3C//DTD SVG 20010904//EN"
 "http://www.w3.org/TR/2001/REC-SVG-20010904/DTD/svg10.dtd">
<svg version="1.0" xmlns="http://www.w3.org/2000/svg"
 width="500.000000pt" height="500.000000pt" viewBox="0 0 500.000000 500.000000"
 preserveAspectRatio="xMidYMid meet">

<g transform="translate(0.000000,500.000000) scale(0.100000,-0.100000)"
fill="#000000" stroke="none">
<path d="M2364 4989 c-45 -5 -133 -22 -196 -38 -473 -122 -850 -476 -1002
-941 -48 -150 -68 -279 -68 -445 0 -217 42 -412 126 -590 34 -72 1128 -1977
1225 -2132 31 -51 65 -66 107 -48 21 9 44 39 85 111 31 55 296 513 589 1019
293 506 557 970 586 1030 157 325 182 714 68 1062 -82 252 -257 501 -469 668
-302 237 -670 344 -1051 304z m396 -95 c234 -40 477 -154 638 -299 95 -86 217
-372 258 -605 23 -127 23 -365 1 -485 -119 -650 -616 -1146 -1258 -1256 -106
-18 -149 -20 -294 -16 -162 5 -244 17 -360 52 l-50 15 -177 308 c-210 366
-229 403 -273 535 -84 250 -90 542 -16 797 150 524 622 919 1161 970 104 10
256 3 370 -16z"/>
<path d="M2315 4409 c-159 -39 -336 -145 -444 -266 -313 -348 -299 -885 31
-1210 146 -145 313 -228 507 -254 444 -59 865 230 973 669 29 118 29 282 -1
407 -43 182 -162 371 -304 485 -84 67 -243 145 -347 170 -115 27 -302 27 -415
-1z m419 -229 c170 -58 302 -174 378 -330 58 -119 72 -179 72 -305 0 -183 -62
-325 -198 -460 -206 -204 -494 -251 -756 -122 -68 33 -102 58 -170 127 -133
132 -191 271 -193 460 -2 119 13 180 71 300 76 156 208 271 378 331 117 40
301 40 418 -1z"/>
<path d="M1500 1134 c-460 -83 -613 -240 -358 -367 485 -242 2282 -242 2767 0
157 79 162 178 13 256 -82 43 -161 68 -324 101 -151 31 -154 31 -169 5 -18
-34 7 -48 117 -70 189 -36 312 -75 377 -121 73 -52 -20 -116 -253 -174 -412
-102 -1229 -132 -1845 -69 -423 44 -725 130 -725 206 0 50 214 127 482 173 41
7 58 36 38 61 -14 17 -20 17 -120 -1z"/>
<path d="M1929 450 c-104 -21 -203 -64 -224 -96 -60 -92 45 -157 321 -198 497
-75 1234 -15 1320 108 55 80 -34 150 -243 190 -76 14 -103 8 -103 -23 0 -28
18 -38 89 -51 74 -13 183 -52 188 -67 7 -21 -122 -61 -262 -82 -321 -47 -847
-37 -1100 20 -63 14 -145 49 -145 61 0 15 82 45 171 63 91 19 109 28 109 56 0
33 -30 38 -121 19z"/>
</g>
</svg>
